# xmcd
#
# Track frame offsets:
#	150
#	11031
#	36942
#	64405
#	90036
#	114891
#	139721
#	163063
#	190894
#	220938
#	249049
#	278489
#	314885
#
# Disc length: 4710 seconds
#
# Revision: 0
# Processed by: cddbd v1.5.2PL0 Copyright (c) Steve Scherf et al.
# Submitted via: dBpowerAMP V4.0
#
DISCID=ae12640d
DTITLE=Anna Jansson - Må döden sova
DYEAR=2002
DGENRE=CD-BOK
TTITLE0=04.01
TTITLE1=04.02
TTITLE2=04.03
TTITLE3=04.04
TTITLE4=04.05
TTITLE5=04.06
TTITLE6=04.07
TTITLE7=04.08
TTITLE8=04.09
TTITLE9=04.10
TTITLE10=04.11
TTITLE11=04.12
TTITLE12=04.13
EXTD=
EXTT0=
EXTT1=
EXTT2=
EXTT3=
EXTT4=
EXTT5=
EXTT6=
EXTT7=
EXTT8=
EXTT9=
EXTT10=
EXTT11=
EXTT12=
PLAYORDER=
